<?xml version="1.0" encoding="UTF-8"?>
<svg xmlns="http://www.w3.org/2000/svg" xmlns:xlink="http://www.w3.org/1999/xlink" class="svglite" width="504.00pt" height="360.00pt" viewBox="0 0 504.00 360.00">
<defs>
  <style type="text/css"><![CDATA[
    .svglite line, .svglite polyline, .svglite polygon, .svglite path, .svglite rect, .svglite circle {
      fill: none;
      stroke: #000000;
      stroke-linecap: round;
      stroke-linejoin: round;
      stroke-miterlimit: 10.00;
    }
  ]]></style>
</defs>
<rect width="100%" height="100%" style="stroke: none; fill: #FFFFFF;"/>
<defs>
  <clipPath id="cpMC4wMHw1MDQuMDB8MC4wMHwzNjAuMDA=">
    <rect x="0.00" y="0.00" width="504.00" height="360.00"/>
  </clipPath>
</defs>
<g clip-path="url(#cpMC4wMHw1MDQuMDB8MC4wMHwzNjAuMDA=)">
<rect x="0.00" y="0.00" width="504.00" height="360.00" style="stroke-width: 1.07; stroke: none;"/>
</g>
<defs>
  <clipPath id="cpMzguNjN8NDk4LjUyfDUuNDh8MzQxLjMw">
    <rect x="38.63" y="5.48" width="459.90" height="335.82"/>
  </clipPath>
</defs>
<g clip-path="url(#cpMzguNjN8NDk4LjUyfDUuNDh8MzQxLjMw)">
<rect x="38.63" y="5.48" width="459.90" height="335.82" style="stroke-width: 1.07; stroke: none;"/>
<polyline points="38.63,294.26 498.52,294.26 " style="stroke-width: 0.53; stroke: #EBEBEB; stroke-linecap: butt;"/>
<polyline points="38.63,207.82 498.52,207.82 " style="stroke-width: 0.53; stroke: #EBEBEB; stroke-linecap: butt;"/>
<polyline points="38.63,121.39 498.52,121.39 " style="stroke-width: 0.53; stroke: #EBEBEB; stroke-linecap: butt;"/>
<polyline points="38.63,34.95 498.52,34.95 " style="stroke-width: 0.53; stroke: #EBEBEB; stroke-linecap: butt;"/>
<polyline points="38.63,337.48 498.52,337.48 " style="stroke-width: 1.07; stroke: #EBEBEB; stroke-linecap: butt;"/>
<polyline points="38.63,251.04 498.52,251.04 " style="stroke-width: 1.07; stroke: #EBEBEB; stroke-linecap: butt;"/>
<polyline points="38.63,164.61 498.52,164.61 " style="stroke-width: 1.07; stroke: #EBEBEB; stroke-linecap: butt;"/>
<polyline points="38.63,78.17 498.52,78.17 " style="stroke-width: 1.07; stroke: #EBEBEB; stroke-linecap: butt;"/>
<polyline points="65.68,341.30 65.68,5.48 " style="stroke-width: 1.07; stroke: #EBEBEB; stroke-linecap: butt;"/>
<polyline points="110.77,341.30 110.77,5.48 " style="stroke-width: 1.07; stroke: #EBEBEB; stroke-linecap: butt;"/>
<polyline points="155.85,341.30 155.85,5.48 " style="stroke-width: 1.07; stroke: #EBEBEB; stroke-linecap: butt;"/>
<polyline points="200.94,341.30 200.94,5.48 " style="stroke-width: 1.07; stroke: #EBEBEB; stroke-linecap: butt;"/>
<polyline points="246.03,341.30 246.03,5.48 " style="stroke-width: 1.07; stroke: #EBEBEB; stroke-linecap: butt;"/>
<polyline points="291.12,341.30 291.12,5.48 " style="stroke-width: 1.07; stroke: #EBEBEB; stroke-linecap: butt;"/>
<polyline points="336.20,341.30 336.20,5.48 " style="stroke-width: 1.07; stroke: #EBEBEB; stroke-linecap: butt;"/>
<polyline points="381.29,341.30 381.29,5.48 " style="stroke-width: 1.07; stroke: #EBEBEB; stroke-linecap: butt;"/>
<polyline points="426.38,341.30 426.38,5.48 " style="stroke-width: 1.07; stroke: #EBEBEB; stroke-linecap: butt;"/>
<polyline points="471.47,341.30 471.47,5.48 " style="stroke-width: 1.07; stroke: #EBEBEB; stroke-linecap: butt;"/>
<circle cx="110.77" cy="311.92" r="1.95" style="stroke-width: 0.71; fill: #000000;"/>
<circle cx="155.85" cy="311.12" r="1.95" style="stroke-width: 0.71; fill: #000000;"/>
<circle cx="200.94" cy="298.78" r="1.95" style="stroke-width: 0.71; fill: #000000;"/>
<circle cx="471.47" cy="46.85" r="1.95" style="stroke-width: 0.71; fill: #000000;"/>
<circle cx="65.68" cy="314.60" r="1.95" style="stroke-width: 0.71; fill: #000000;"/>
<circle cx="291.12" cy="92.23" r="1.95" style="stroke-width: 0.71; fill: #000000;"/>
<circle cx="426.38" cy="49.81" r="1.95" style="stroke-width: 0.71; fill: #000000;"/>
<circle cx="381.29" cy="60.91" r="1.95" style="stroke-width: 0.71; fill: #000000;"/>
<circle cx="336.20" cy="81.58" r="1.95" style="stroke-width: 0.71; fill: #000000;"/>
<circle cx="246.03" cy="259.85" r="1.95" style="stroke-width: 0.71; fill: #000000;"/>
<polyline points="108.51,288.44 113.02,288.44 " style="stroke-width: 1.07; stroke-linecap: butt;"/>
<polyline points="110.77,288.44 110.77,324.64 " style="stroke-width: 1.07; stroke-linecap: butt;"/>
<polyline points="108.51,324.64 113.02,324.64 " style="stroke-width: 1.07; stroke-linecap: butt;"/>
<polyline points="153.60,287.02 158.11,287.02 " style="stroke-width: 1.07; stroke-linecap: butt;"/>
<polyline points="155.85,287.02 155.85,324.23 " style="stroke-width: 1.07; stroke-linecap: butt;"/>
<polyline points="153.60,324.23 158.11,324.23 " style="stroke-width: 1.07; stroke-linecap: butt;"/>
<polyline points="198.69,265.93 203.20,265.93 " style="stroke-width: 1.07; stroke-linecap: butt;"/>
<polyline points="200.94,265.93 200.94,317.64 " style="stroke-width: 1.07; stroke-linecap: butt;"/>
<polyline points="198.69,317.64 203.20,317.64 " style="stroke-width: 1.07; stroke-linecap: butt;"/>
<polyline points="469.21,20.74 473.72,20.74 " style="stroke-width: 1.07; stroke-linecap: butt;"/>
<polyline points="471.47,20.74 471.47,89.23 " style="stroke-width: 1.07; stroke-linecap: butt;"/>
<polyline points="469.21,89.23 473.72,89.23 " style="stroke-width: 1.07; stroke-linecap: butt;"/>
<polyline points="63.42,293.24 67.93,293.24 " style="stroke-width: 1.07; stroke-linecap: butt;"/>
<polyline points="65.68,293.24 65.68,326.04 " style="stroke-width: 1.07; stroke-linecap: butt;"/>
<polyline points="63.42,326.04 67.93,326.04 " style="stroke-width: 1.07; stroke-linecap: butt;"/>
<polyline points="288.86,48.85 293.37,48.85 " style="stroke-width: 1.07; stroke-linecap: butt;"/>
<polyline points="291.12,48.85 291.12,150.44 " style="stroke-width: 1.07; stroke-linecap: butt;"/>
<polyline points="288.86,150.44 293.37,150.44 " style="stroke-width: 1.07; stroke-linecap: butt;"/>
<polyline points="424.13,22.45 428.63,22.45 " style="stroke-width: 1.07; stroke-linecap: butt;"/>
<polyline points="426.38,22.45 426.38,93.67 " style="stroke-width: 1.07; stroke-linecap: butt;"/>
<polyline points="424.13,93.67 428.63,93.67 " style="stroke-width: 1.07; stroke-linecap: butt;"/>
<polyline points="379.04,29.00 383.55,29.00 " style="stroke-width: 1.07; stroke-linecap: butt;"/>
<polyline points="381.29,29.00 381.29,109.71 " style="stroke-width: 1.07; stroke-linecap: butt;"/>
<polyline points="379.04,109.71 383.55,109.71 " style="stroke-width: 1.07; stroke-linecap: butt;"/>
<polyline points="333.95,41.86 338.46,41.86 " style="stroke-width: 1.07; stroke-linecap: butt;"/>
<polyline points="336.20,41.86 336.20,137.28 " style="stroke-width: 1.07; stroke-linecap: butt;"/>
<polyline points="333.95,137.28 338.46,137.28 " style="stroke-width: 1.07; stroke-linecap: butt;"/>
<polyline points="243.77,207.88 248.28,207.88 " style="stroke-width: 1.07; stroke-linecap: butt;"/>
<polyline points="246.03,207.88 246.03,295.06 " style="stroke-width: 1.07; stroke-linecap: butt;"/>
<polyline points="243.77,295.06 248.28,295.06 " style="stroke-width: 1.07; stroke-linecap: butt;"/>
<rect x="38.63" y="5.48" width="459.90" height="335.82" style="stroke-width: 1.07; stroke: #333333;"/>
</g>
<g clip-path="url(#cpMC4wMHw1MDQuMDB8MC4wMHwzNjAuMDA=)">
<text x="33.69" y="340.63" text-anchor="end" style="font-size: 8.80px; fill: #4D4D4D; font-family: Arial;" textLength="15.16px" lengthAdjust="spacingAndGlyphs">-1.0</text>
<text x="33.69" y="254.20" text-anchor="end" style="font-size: 8.80px; fill: #4D4D4D; font-family: Arial;" textLength="15.16px" lengthAdjust="spacingAndGlyphs">-0.5</text>
<text x="33.69" y="167.76" text-anchor="end" style="font-size: 8.80px; fill: #4D4D4D; font-family: Arial;" textLength="12.23px" lengthAdjust="spacingAndGlyphs">0.0</text>
<text x="33.69" y="81.33" text-anchor="end" style="font-size: 8.80px; fill: #4D4D4D; font-family: Arial;" textLength="12.23px" lengthAdjust="spacingAndGlyphs">0.5</text>
<polyline points="35.89,337.48 38.63,337.48 " style="stroke-width: 1.07; stroke: #333333; stroke-linecap: butt;"/>
<polyline points="35.89,251.04 38.63,251.04 " style="stroke-width: 1.07; stroke: #333333; stroke-linecap: butt;"/>
<polyline points="35.89,164.61 38.63,164.61 " style="stroke-width: 1.07; stroke: #333333; stroke-linecap: butt;"/>
<polyline points="35.89,78.17 38.63,78.17 " style="stroke-width: 1.07; stroke: #333333; stroke-linecap: butt;"/>
<polyline points="65.68,344.04 65.68,341.30 " style="stroke-width: 1.07; stroke: #333333; stroke-linecap: butt;"/>
<polyline points="110.77,344.04 110.77,341.30 " style="stroke-width: 1.07; stroke: #333333; stroke-linecap: butt;"/>
<polyline points="155.85,344.04 155.85,341.30 " style="stroke-width: 1.07; stroke: #333333; stroke-linecap: butt;"/>
<polyline points="200.94,344.04 200.94,341.30 " style="stroke-width: 1.07; stroke: #333333; stroke-linecap: butt;"/>
<polyline points="246.03,344.04 246.03,341.30 " style="stroke-width: 1.07; stroke: #333333; stroke-linecap: butt;"/>
<polyline points="291.12,344.04 291.12,341.30 " style="stroke-width: 1.07; stroke: #333333; stroke-linecap: butt;"/>
<polyline points="336.20,344.04 336.20,341.30 " style="stroke-width: 1.07; stroke: #333333; stroke-linecap: butt;"/>
<polyline points="381.29,344.04 381.29,341.30 " style="stroke-width: 1.07; stroke: #333333; stroke-linecap: butt;"/>
<polyline points="426.38,344.04 426.38,341.30 " style="stroke-width: 1.07; stroke: #333333; stroke-linecap: butt;"/>
<polyline points="471.47,344.04 471.47,341.30 " style="stroke-width: 1.07; stroke: #333333; stroke-linecap: butt;"/>
<text x="65.68" y="352.54" text-anchor="middle" style="font-size: 8.80px; fill: #4D4D4D; font-family: Arial;" textLength="8.79px" lengthAdjust="spacingAndGlyphs">wt</text>
<text x="110.77" y="352.54" text-anchor="middle" style="font-size: 8.80px; fill: #4D4D4D; font-family: Arial;" textLength="10.75px" lengthAdjust="spacingAndGlyphs">cyl</text>
<text x="155.85" y="352.54" text-anchor="middle" style="font-size: 8.80px; fill: #4D4D4D; font-family: Arial;" textLength="16.14px" lengthAdjust="spacingAndGlyphs">disp</text>
<text x="200.94" y="352.54" text-anchor="middle" style="font-size: 8.80px; fill: #4D4D4D; font-family: Arial;" textLength="9.79px" lengthAdjust="spacingAndGlyphs">hp</text>
<text x="246.03" y="352.54" text-anchor="middle" style="font-size: 8.80px; fill: #4D4D4D; font-family: Arial;" textLength="17.12px" lengthAdjust="spacingAndGlyphs">carb</text>
<text x="291.12" y="352.54" text-anchor="middle" style="font-size: 8.80px; fill: #4D4D4D; font-family: Arial;" textLength="18.59px" lengthAdjust="spacingAndGlyphs">qsec</text>
<text x="336.20" y="352.54" text-anchor="middle" style="font-size: 8.80px; fill: #4D4D4D; font-family: Arial;" textLength="17.62px" lengthAdjust="spacingAndGlyphs">gear</text>
<text x="381.29" y="352.54" text-anchor="middle" style="font-size: 8.80px; fill: #4D4D4D; font-family: Arial;" textLength="12.23px" lengthAdjust="spacingAndGlyphs">am</text>
<text x="426.38" y="352.54" text-anchor="middle" style="font-size: 8.80px; fill: #4D4D4D; font-family: Arial;" textLength="8.80px" lengthAdjust="spacingAndGlyphs">vs</text>
<text x="471.47" y="352.54" text-anchor="middle" style="font-size: 8.80px; fill: #4D4D4D; font-family: Arial;" textLength="15.16px" lengthAdjust="spacingAndGlyphs">drat</text>
<text transform="translate(13.37,173.39) rotate(-90)" text-anchor="middle" style="font-size: 11.00px; font-family: Arial;" textLength="100.87px" lengthAdjust="spacingAndGlyphs">Correlation with mpg</text>
</g>
</svg>